<svg width="129" height="107" viewBox="0 0 129 107" fill="none" xmlns="http://www.w3.org/2000/svg">
<g clip-path="url(#clip0_32_648)">
<path d="M46.72 39.24C45.536 39.24 44.544 38.872 43.744 38.136C42.976 37.368 42.592 36.424 42.592 35.304C42.592 34.184 42.976 33.256 43.744 32.52C44.544 31.752 45.536 31.368 46.72 31.368C47.904 31.368 48.88 31.752 49.648 32.52C50.448 33.256 50.848 34.184 50.848 35.304C50.848 36.424 50.448 37.368 49.648 38.136C48.88 38.872 47.904 39.24 46.72 39.24ZM50.032 42.408V69H43.312V42.408H50.032ZM77.1674 42.024C80.3354 42.024 82.8954 43.032 84.8474 45.048C86.7994 47.032 87.7754 49.816 87.7754 53.4V69H81.0554V54.312C81.0554 52.2 80.5274 50.584 79.4714 49.464C78.4154 48.312 76.9754 47.736 75.1514 47.736C73.2954 47.736 71.8234 48.312 70.7354 49.464C69.6794 50.584 69.1514 52.2 69.1514 54.312V69H62.4314V42.408H69.1514V45.72C70.0474 44.568 71.1834 43.672 72.5594 43.032C73.9674 42.36 75.5034 42.024 77.1674 42.024Z" fill="#FF3E30"/>
<rect x="67.7267" y="-1.29378" width="76.8798" height="76.8798" rx="26.5" transform="rotate(47.875 67.7267 -1.29378)" stroke="#FF3E30"/>
</g>
<defs>
<clipPath id="clip0_32_648">
<rect width="129" height="107" fill="white"/>
</clipPath>
</defs>
</svg>
